<?xml version="1.0" encoding="UTF-8"?>
<svg width="281px" height="281px" viewBox="0 0 281 281" version="1.1" xmlns="http://www.w3.org/2000/svg" xmlns:xlink="http://www.w3.org/1999/xlink">
    <!-- Generator: Sketch 54.1 (76490) - https://sketchapp.com -->
    <title>globe</title>
    <desc>Created with Sketch.</desc>
    <g id="Responsive-web" stroke="none" stroke-width="1" fill="none" fill-rule="evenodd">
        <g id="Responsive-Desktop" transform="translate(-588.000000, -148.000000)" fill="#000000" fill-rule="nonzero">
            <g id="Hero" transform="translate(144.000000, 148.000000)">
                <g id="globe" transform="translate(444.000000, 0.000000)">
                    <path d="M140.5,281 C63.0283,281 0,217.9717 0,140.5 C0,63.0283 63.0283,0 140.5,0 C217.9717,0 281,63.0283 281,140.5 C281,217.9717 217.9717,281 140.5,281 Z M140.5,9.36666667 C68.1940167,9.36666667 9.36666667,68.1940167 9.36666667,140.5 C9.36666667,212.805983 68.1940167,271.633333 140.5,271.633333 C212.805983,271.633333 271.633333,212.805983 271.633333,140.5 C271.633333,68.1940167 212.805983,9.36666667 140.5,9.36666667 Z" id="Shape"></path>
                    <path d="M156.341906,241 C149.987727,241 144.007598,237.171119 141.529515,230.964401 L136.405027,218.139054 C136.138516,217.479064 135.918761,216.790989 135.741087,216.088871 L126.876096,180.58513 C126.759205,180.117051 126.590883,179.667696 126.375804,179.237064 L121.616014,169.71167 C120.227353,166.926604 117.155465,165.531731 114.130333,166.261933 L109.604325,167.394682 C104.802455,168.592963 99.6358856,167.469575 95.7784922,164.375577 L80.9801286,152.528515 C77.1788428,149.476644 75,144.936284 75,140.068269 L75,135.05515 C75,131.70839 76.0286382,128.506735 77.969024,125.787199 L95.8813561,100.684159 C98.8690825,96.4948575 103.717709,94 108.851549,94 L118.637639,94 C121.536529,94 124.374635,94.7910524 126.843367,96.2795415 L143.801871,106.464926 L143.801871,106.464926 C145.209235,107.316829 146.873758,107.607037 148.482175,107.279382 L158.623612,105.243242 C165.978376,103.768795 173.45003,107.710014 176.400351,114.609489 L185.391585,135.612164 C185.933957,136.875975 186.878434,137.961917 188.052017,138.659354 L197.263005,144.19672 C201.204559,146.565197 203.935126,150.525139 204.748686,155.051457 C205.562245,159.587136 204.379311,164.249196 201.508475,167.844038 L193.326126,178.085591 C192.395676,179.251107 191.881357,180.716192 191.881357,182.204681 L191.881357,196.981914 C191.881357,201.185257 190.179428,205.299666 187.210404,208.267282 L182.142023,213.341251 C181.758621,213.725076 181.426652,214.151027 181.15079,214.609744 L169.980714,233.248623 C168.026301,236.506448 164.963764,238.96854 161.358855,240.171501 C159.708358,240.737876 158.011105,241 156.341906,241 Z M115.794857,156.694412 C121.714202,156.694412 127.222093,159.994364 129.985389,165.52705 L134.745179,175.052444 C135.264173,176.091578 135.670953,177.191562 135.951491,178.319631 L144.816482,213.823372 C144.886616,214.1089 144.980129,214.385066 145.087668,214.656552 L150.216833,227.49594 C151.511982,230.725681 155.102864,232.39672 158.417885,231.301417 C159.904735,230.800573 161.17183,229.784843 161.985389,228.432097 L173.15079,209.797898 C173.819404,208.688553 174.623613,207.6541 175.544711,206.731985 L180.617768,201.648655 C181.847458,200.422289 182.548802,198.723165 182.548802,196.986594 L182.548802,182.209362 C182.548802,178.600478 183.787844,175.066486 186.041497,172.243974 L194.228522,162.00242 C195.434834,160.495208 195.907073,158.618214 195.570427,156.717816 C195.229106,154.817418 194.130334,153.22127 192.475161,152.228944 L183.268849,146.696259 C180.383987,144.96905 178.153712,142.413342 176.821158,139.305302 L167.825249,118.297946 C166.60491,115.447349 163.518995,113.827798 160.479837,114.426938 L150.333723,116.463079 C146.434249,117.254132 142.413209,116.542652 139.004676,114.49715 L122.036821,104.307085 C121.012858,103.689221 119.843951,103.366247 118.64699,103.366247 L108.8609,103.366247 C106.738165,103.366247 104.736996,104.400701 103.50263,106.12791 L85.5902981,131.23095 C84.7860901,132.354338 84.3606079,133.679 84.3606079,135.059831 L84.3606079,140.07295 C84.3606079,142.085687 85.2630042,143.962681 86.8340153,145.226493 L101.627703,157.068874 C103.222093,158.346728 105.36353,158.824168 107.345997,158.318644 L111.867329,157.190575 C113.176505,156.853558 114.495032,156.694412 115.794857,156.694412 Z" id="Shape"></path>
                    <path d="M211.14275,234 C209.898025,234 208.700449,233.514685 207.80934,232.632718 L198.379608,223.299738 C197.2669,222.198446 196.781269,220.616506 197.09245,219.085897 L201.807315,195.753446 C201.991195,194.852814 202.439107,194.022179 203.094474,193.36887 L217.239071,179.369399 C218.469651,178.151445 220.28016,177.698796 221.939792,178.202777 C223.60414,178.697425 224.853579,180.064706 225.19305,181.753976 L229.907915,205.086427 C230.138944,206.22505 229.93149,207.405672 229.327987,208.404301 L215.18339,231.736752 C214.438441,232.968706 213.155997,233.790008 211.717963,233.967335 C211.524654,233.986001 211.331344,234 211.14275,234 Z M206.828647,218.465254 L210.204491,221.811128 L220.303734,205.151758 L217.672839,192.136917 L210.76556,198.973325 L206.828647,218.465254 Z" id="Shape"></path>
                    <path d="M263.292792,130 C255.911576,130 249.305599,124.949084 247.435628,117.560127 C246.3315,113.193287 244.950165,109.449611 243.338607,106.42281 C242.314352,104.501775 240.472572,103.274186 238.27841,103.049285 C235.877518,102.810327 233.537706,103.7849 231.982529,105.659081 C222.524612,117.058784 213.311013,122.329916 204.571954,121.345972 C193.981718,120.137125 188.841648,110.119631 188.62552,109.693254 C166.853048,66.2638072 127.954839,70.0168536 127.569568,70.0871354 C127.395727,70.1058772 127.226584,70.1152481 127.052742,70.1152481 C124.440421,70.1152481 121.541497,70.7430985 118.445239,71.9753722 C108.061733,76.1173111 96.5881947,73.0108569 89.8929479,64.2490631 C83.3339553,55.6559456 83.3715427,44.4858299 89.9916147,35.7990034 L90.5366313,35.0915002 C93.8349213,30.8652233 98.8810231,28.1757743 104.368776,27.7306564 C122.081815,26.2969083 135.251483,17.7974998 143.516002,2.46670346 C144.371114,0.878335496 146.071941,-0.0915529046 147.876134,0.00684157088 C216.463652,3.2210611 272.435915,54.8547335 280.963545,122.77972 C281.268942,125.225525 279.624495,127.493284 277.195413,127.957143 C273.394392,128.692759 269.438323,129.334666 265.435271,129.864122 C264.716413,129.953145 263.997555,130 263.292792,130 Z M237.554854,93.6408986 C238.113965,93.6408986 238.673077,93.6736968 239.232189,93.7299222 C244.597783,94.2734345 249.117662,97.300236 251.636015,102.023171 C253.604652,105.715306 255.258496,110.17117 256.545862,115.264256 C257.429165,118.750232 260.71336,121.036732 264.19019,120.572872 C266.487716,120.268318 268.771148,119.921594 271.012294,119.546758 C261.399329,59.2684285 211.520915,13.7024155 150.300518,9.52767843 C143.083747,21.5411753 129.603984,35.0821293 105.134618,37.0687607 C102.263885,37.3030332 99.6468653,38.6805559 97.9507362,40.8546052 L97.4855927,41.454343 C92.6274277,47.8265566 94.2483821,54.4705265 97.3728306,58.5702963 C100.539565,62.7169206 107.042177,66.4418543 114.959012,63.2744893 C119.084224,61.6298959 123.073181,60.7818292 126.817821,60.7443456 C128.715982,60.5709839 139.395488,59.9103353 152.67322,64.5208193 C165.819396,69.0844488 184.190213,79.8937847 197.030992,105.504461 C197.045087,105.537259 200.174234,111.454984 205.694876,112.045351 C210.999391,112.706 217.56778,108.343844 224.742266,99.6898161 C227.941889,95.8336898 232.635609,93.6408986 237.554854,93.6408986 Z" id="Shape"></path>
                    <path d="M17.0262714,131 L5.66175883,131 C4.34149731,131 3.08188384,130.43912 2.20015441,129.45758 C1.31842499,128.476039 0.889223364,127.167319 1.02451518,125.849251 C3.72102104,99.57669 13.7979288,74.6595897 30.177569,53.7855004 C31.5444829,52.0420979 33.947079,51.4999138 35.9298039,52.4954761 L53.4430963,61.2685763 C60.7628501,64.9376672 65.941261,71.958017 67.2848487,80.0487131 L67.6440718,82.1847316 C69.5055006,93.3929864 63.9445404,104.339497 53.8023194,109.420137 L44.6771196,113.99131 C42.1392317,115.262638 39.9652322,117.188326 38.3883827,119.553371 C33.6158473,126.718615 25.6336301,131 17.0262714,131 Z M10.9334744,121.651998 L17.0262714,121.651998 C22.5032574,121.651998 27.5883636,118.927055 30.6254316,114.360556 C33.0980062,110.640051 36.5176235,107.620646 40.5063995,105.620174 L49.6315992,101.049 C56.0882846,97.8192656 59.629198,90.8456558 58.4442283,83.71313 L58.0850052,81.5771114 C58.0850052,81.5724374 58.0850052,81.5724374 58.0850052,81.5724374 C57.2266019,76.4216881 53.932946,71.958017 49.2723761,69.6210164 L35.2113577,62.5772966 C22.3119827,80.0300171 13.9892034,100.287138 10.9334744,121.651998 Z" id="Shape"></path>
                    <path d="M57.4385292,252 C56.4175677,252 55.410592,251.667643 54.5761074,251.016972 C24.0311761,227.190244 4.50703498,191.445472 1.01991522,152.948221 C0.833438233,150.925992 1.97094789,149.02079 3.82639396,148.220325 L8.70742923,146.118517 L8.70742923,146.118517 C18.4741617,141.914902 29.6394716,144.077563 37.1544944,151.623474 L45.7930411,160.297526 C48.1053558,162.619345 51.0237207,164.187509 54.231125,164.833499 C66.2682148,167.25362 75,177.949901 75,190.275201 L75,191.571862 C75,198.626258 72.9440912,205.451281 69.046722,211.312001 C66.7390692,214.785367 65.2798868,218.820463 64.8183562,222.963224 L62.0678206,247.838515 C61.8813436,249.519024 60.804439,250.974842 59.252018,251.634875 C58.6692774,251.878292 58.0539033,252 57.4385292,252 Z M10.6561138,155.466646 C14.3856536,187.293349 29.8492582,216.86845 53.7602706,238.172072 L55.5551116,221.924023 C56.1798096,216.297357 58.1611276,210.829849 61.2892791,206.111314 C64.1610248,201.790672 65.6761504,196.763186 65.6761504,191.56718 L65.6761504,190.27052 C65.6761504,182.392252 60.0958264,175.553185 52.3989885,174.008427 C47.3780955,173.001994 42.8094092,170.549105 39.1964175,166.911901 L30.5578708,158.237848 C25.7514263,153.421011 18.6186814,152.03541 12.3763641,154.717672 L10.6561138,155.466646 Z" id="Shape"></path>
                </g>
            </g>
        </g>
    </g>
</svg>